# xmcd CD database file
#
# Track frame offsets:
#	150
#	24388
#	31096
#	43219
#	81992
#	93661
#	105975
#	119669
#	133620
#	148150
#	159680
#	171667
#	188057
#
# Disc length: 2803 seconds
#
# Revision: 1
# Processed by: cddbd v1.5.2PL0 Copyright (c) Steve Scherf et al.
# Submitted via: CDex 1.51
#
DISCID=b70af10d
DTITLE=B.B. King - The Life Of Riley CD1
DYEAR=2012
DGENRE=Blues
TTITLE0=Walking Dr. Bill (live)
TTITLE1=Nobody Loves Me But My Mother
TTITLE2=I'll Survive
TTITLE3=To Know You Is To Love You
TTITLE4=Paying The Cost To Be The Boss
TTITLE5=Miss Martha King
TTITLE6=3 O'Clock Blues
TTITLE7=You Know I Love You
TTITLE8=Sweet Little Angel
TTITLE9=Catfish Blues (Fishin' After Me)
TTITLE10=Every Day I Have The Blues (live)
TTITLE11=How Blue Can You Get (live)
TTITLE12=Chains And Things
EXTD=YEAR: 2012
EXTT0=
EXTT1=
EXTT2=
EXTT3=
EXTT4=
EXTT5=
EXTT6=
EXTT7=
EXTT8=
EXTT9=
EXTT10=
EXTT11=
EXTT12=
PLAYORDER=
